<svg xmlns="http://www.w3.org/2000/svg" width="48" height="48" viewBox="0 0 48 48" fill="none">
  <circle cx="24" cy="24" r="23" fill="#49afa2" stroke="#ffffff" stroke-width="2"/>
  <path d="M16 22h16c1.1 0 2 .9 2 2v11c0 1.1-.9 2-2 2H16c-1.1 0-2-.9-2-2V24c0-1.1.9-2 2-2Z" fill="#ffffff"/>
  <path d="M18.5 22v-5.5c0-4.1 2.7-7.5 5.5-7.5s5.5 3.4 5.5 7.5V22" stroke="#ffffff" stroke-width="4" stroke-linecap="round"/>
  <path d="M18.5 22v-5.5c0-4.1 2.7-7.5 5.5-7.5s5.5 3.4 5.5 7.5V22" stroke="#49afa2" stroke-width="2" stroke-linecap="round"/>
  <circle cx="24" cy="29" r="2.2" fill="#49afa2"/>
  <path d="M24 30.5v3.5" stroke="#49afa2" stroke-width="2" stroke-linecap="round"/>
</svg>
