<svg width="18" height="18" viewBox="0 0 18 18" xmlns="http://www.w3.org/2000/svg" aria-hidden="true">
  <path fill="#c8c8c8" fill-rule="evenodd" d="M6.35 7.55 8.7 3.12a.78.78 0 0 1 1.04-.33l.42.22a2.61 2.61 0 0 1 1.35 2.86l-.34 1.58h3.06a1.95 1.95 0 0 1 1.89 2.42l-.9 3.62A3.24 3.24 0 0 1 12.07 16H6.35V7.55Zm1.35.32v6.78h4.37c.88 0 1.65-.6 1.86-1.46l.9-3.62a.6.6 0 0 0-.59-.75h-3.9a.68.68 0 0 1-.66-.82l.51-2.41c.13-.62-.15-1.26-.7-1.57L7.7 7.87ZM2.6 7.55h2.4V16H2.6A1.6 1.6 0 0 1 1 14.4V9.15a1.6 1.6 0 0 1 1.6-1.6Zm-.25 1.6v5.25c0 .14.11.25.25.25h1.05V8.9H2.6a.25.25 0 0 0-.25.25Z"/>
</svg>
