<svg xmlns="http://www.w3.org/2000/svg" width="56" height="34" viewBox="0 0 56 34" fill="none" role="img" aria-label="Группы">
  <defs>
    <linearGradient id="ptgGroupsGradient" x1="4" y1="31" x2="52" y2="3" gradientUnits="userSpaceOnUse">
      <stop stop-color="#168bd7"/>
      <stop offset="1" stop-color="#35c4b6"/>
    </linearGradient>
  </defs>
  <g stroke="url(#ptgGroupsGradient)" stroke-width="2.25" stroke-linecap="round" stroke-linejoin="round">
    <path d="M3.8 11.2c4.05.3 7.15 1.95 9.9 4.25l5.1 4.25"/>
    <path d="M52.2 11.2c-4.05.3-7.15 1.95-9.9 4.25l-5.1 4.25"/>
    <path d="M20.2 13.4h6.1l5.95 5.45c1.1 1.05 1.1 2.7.1 3.7-.95.95-2.45.95-3.5.05l-5-4.35"/>
    <path d="M20.5 13.4 15.8 18c-.95.95-.9 2.5.1 3.35.9.8 2.25.75 3.1-.05l3.85-3.55"/>
    <path d="m19.25 21.15 4.5 3.95c.95.8 2.3.75 3.15-.1.7-.7.85-1.75.4-2.6"/>
    <path d="m15 22.1 4.8 4.2c.85.75 2.15.65 2.85-.15"/>
    <path d="M11.6 26.2c2.4 1.15 4.65 2.05 7.15 2.4"/>
    <path d="M44.4 26.2c-2.4 1.15-4.65 2.05-7.15 2.4"/>
  </g>
</svg>
