<svg xmlns="http://www.w3.org/2000/svg" width="52" height="38" viewBox="0 0 52 38" fill="none" role="img" aria-label="Друзья">
  <defs>
    <linearGradient id="ptgFriendsGradient" x1="3" y1="36" x2="49" y2="2" gradientUnits="userSpaceOnUse">
      <stop stop-color="#168bd7"/>
      <stop offset="1" stop-color="#35c4b6"/>
    </linearGradient>
  </defs>
  <g stroke="url(#ptgFriendsGradient)" stroke-width="2.25" stroke-linecap="round" stroke-linejoin="round">
    <path d="M17.3 17.2c4 0 6.1-3.05 6.1-6.95 0-4-2.1-6.25-6.1-6.25s-6.1 2.25-6.1 6.25c0 3.9 2.1 6.95 6.1 6.95Z"/>
    <path d="M12.3 9.4c2.2-.35 3.95-1.25 5.25-2.85 1 1.7 2.65 2.65 4.7 2.9"/>
    <path d="M5 35c.6-6.05 5.1-9.55 12.3-9.55 3.5 0 6.35.8 8.45 2.35"/>
    <path d="M33.9 17.2c4 0 6.1-3.05 6.1-6.95 0-4-2.1-6.25-6.1-6.25s-6.1 2.25-6.1 6.25c0 3.9 2.1 6.95 6.1 6.95Z"/>
    <path d="M28.9 9.4c2.2-.35 3.95-1.25 5.25-2.85 1 1.7 2.65 2.65 4.7 2.9"/>
    <path d="M26.3 35c.6-6.05 4.9-9.55 11.2-9.55 4.65 0 7.95 1.9 9.5 5.35"/>
  </g>
</svg>
