<svg xmlns="http://www.w3.org/2000/svg" width="34" height="30" viewBox="0 0 34 30" fill="none" role="img" aria-label="Друзья">
  <style>
    svg {
      color: #8b8d9a;
    }
  </style>
  <g stroke="currentColor" stroke-width="2.25" stroke-linecap="round" stroke-linejoin="round">
    <path d="M14.2 14.1c3.4 0 5.4-2.8 5.4-6.2 0-3.5-2-5.5-5.4-5.5-3.5 0-5.5 2-5.5 5.5 0 3.4 2 6.2 5.5 6.2Z"/>
    <path d="M9.7 7c2-.35 3.5-1.1 4.65-2.55.95 1.55 2.35 2.35 3.9 2.65"/>
    <path d="M4.2 28c.6-5 4.35-8.15 10-8.15 5.6 0 9.35 3.15 9.95 8.15"/>
    <path d="M24.6 14.4c2.7-.2 4.4-2.6 4.4-5.5 0-3.1-1.85-4.9-4.8-4.9-.8 0-1.55.15-2.2.45"/>
    <path d="M23.5 20.15c4.15.25 6.9 2.9 7.4 7.15"/>
  </g>
</svg>
