<svg width="18" height="18" viewBox="0 0 18 18" xmlns="http://www.w3.org/2000/svg" aria-hidden="true">
  <path fill="#c8c8c8" fill-rule="evenodd" d="M3.25 3.4h11.5c1.1 0 2 .9 2 2v6.2c0 1.1-.9 2-2 2H9.7l-3.55 2.42a.72.72 0 0 1-1.13-.6V13.6H3.25c-1.1 0-2-.9-2-2V5.4c0-1.1.9-2 2-2Zm0 1.35a.65.65 0 0 0-.65.65v6.2c0 .36.29.65.65.65H5.7c.37 0 .68.3.68.68v1.22l2.73-1.78c.11-.08.24-.12.38-.12h5.26c.36 0 .65-.29.65-.65V5.4a.65.65 0 0 0-.65-.65H3.25Zm1.68 3.05c0-.37.3-.68.67-.68h6.8a.68.68 0 0 1 0 1.36H5.6a.68.68 0 0 1-.67-.68Zm0 2.7c0-.37.3-.68.67-.68h4.65a.68.68 0 0 1 0 1.36H5.6a.68.68 0 0 1-.67-.68Z"/>
</svg>
