<svg xmlns="http://www.w3.org/2000/svg" width="28" height="28" viewBox="0 0 28 28" fill="none" role="img" aria-label="Профиль">
  <style>
    svg {
      color: #8b8d9a;
    }
  </style>
  <g stroke="currentColor" stroke-width="2.15" stroke-linecap="round" stroke-linejoin="round">
    <rect x="12.4" y="1.7" width="3.2" height="5.3" rx="1.2"/>
    <rect x="12.4" y="21" width="3.2" height="5.3" rx="1.2"/>
    <rect x="12.4" y="1.7" width="3.2" height="5.3" rx="1.2" transform="rotate(45 14 14)"/>
    <rect x="12.4" y="21" width="3.2" height="5.3" rx="1.2" transform="rotate(45 14 14)"/>
    <rect x="12.4" y="1.7" width="3.2" height="5.3" rx="1.2" transform="rotate(90 14 14)"/>
    <rect x="12.4" y="21" width="3.2" height="5.3" rx="1.2" transform="rotate(90 14 14)"/>
    <rect x="12.4" y="1.7" width="3.2" height="5.3" rx="1.2" transform="rotate(135 14 14)"/>
    <rect x="12.4" y="21" width="3.2" height="5.3" rx="1.2" transform="rotate(135 14 14)"/>
    <circle cx="14" cy="14" r="8.1"/>
    <circle cx="14" cy="14" r="3.35"/>
  </g>
</svg>
