<svg xmlns="http://www.w3.org/2000/svg" width="25" height="25" viewBox="0 0 25 25" fill="none">
  <path d="M14.5 2.2 15 5c.8.2 1.5.5 2.2.9l2.4-1.6 1.6 1.6-1.6 2.4c.4.7.7 1.4.9 2.2l2.8.6v2.3l-2.8.6c-.2.8-.5 1.5-.9 2.2l1.6 2.4-1.6 1.6-2.4-1.6c-.7.4-1.4.7-2.2.9l-.6 2.8h-2.3l-.6-2.8c-.8-.2-1.5-.5-2.2-.9l-2.4 1.6-1.6-1.6 1.6-2.4c-.4-.7-.7-1.4-.9-2.2l-2.8-.6v-2.3l2.8-.6c.2-.8.5-1.5.9-2.2L3.7 5.9l1.6-1.6 2.4 1.6c.7-.4 1.4-.7 2.2-.9l.6-2.8h4Z" stroke="#8b8d9a" stroke-width="2.1" stroke-linecap="round" stroke-linejoin="round"/>
  <circle cx="12.5" cy="12.5" r="3.6" stroke="#8b8d9a" stroke-width="2.1"/>
</svg>
