<svg xmlns="http://www.w3.org/2000/svg" width="24" height="24" viewBox="0 0 24 24" role="img" aria-label="LinkedIn">
  <path fill="#0A66C2" d="M22.23 0H1.77C.79 0 0 .77 0 1.72v20.56C0 23.23.79 24 1.77 24h20.46c.98 0 1.77-.77 1.77-1.72V1.72C24 .77 23.21 0 22.23 0z"/>
  <path fill="#fff" d="M7.12 20.45H3.56V9h3.56v11.45zM5.34 7.43a2.06 2.06 0 1 1 0-4.12 2.06 2.06 0 0 1 0 4.12zm15.11 13.02h-3.55v-5.57c0-1.33-.03-3.04-1.85-3.04-1.85 0-2.13 1.45-2.13 2.94v5.67H9.37V9h3.41v1.56h.05c.47-.9 1.64-1.85 3.37-1.85 3.6 0 4.26 2.37 4.26 5.46v6.28z"/>
</svg>
