<svg width="18" height="18" viewBox="0 0 18 18" xmlns="http://www.w3.org/2000/svg" aria-hidden="true">
  <path fill="#435a9a" fill-rule="evenodd" d="M14.1 2.67c.46-.23 1 .11 1 .62v11.42c0 .51-.54.85-1 .62l-6.32-3.16H5v1.02c0 .39.2.75.52.97l1.15.77a.68.68 0 0 1-.75 1.13l-1.15-.77a2.53 2.53 0 0 1-1.12-2.1v-1.02H2.7A1.7 1.7 0 0 1 1 10.47V7.53a1.7 1.7 0 0 1 1.7-1.7h5.08l6.32-3.16ZM7.2 7.18H2.7a.35.35 0 0 0-.35.35v2.94c0 .19.16.35.35.35h4.5V7.18Zm1.35 3.88 5.2 2.6V4.34l-5.2 2.6v4.12Zm7.38-4.49a.68.68 0 0 1 .9.33 4.66 4.66 0 0 1 0 4.2.68.68 0 0 1-1.23-.61 3.3 3.3 0 0 0 0-2.98.68.68 0 0 1 .33-.94Z"/>
</svg>
